<svg width="132" height="40" viewBox="0 0 132 40" fill="none" xmlns="http://www.w3.org/2000/svg">
<path d="M20 9.99884C22.7614 9.99884 24.9999 7.76052 24.9999 4.99942C24.9999 2.23832 22.7614 0 20 0C17.2386 0 15 2.23832 15 4.99942C15 7.76052 17.2386 9.99884 20 9.99884Z" fill="#5ABCFF"/>
<path d="M35 9.99884C37.7614 9.99884 39.9999 7.76052 39.9999 4.99942C39.9999 2.23832 37.7614 0 35 0C32.2386 0 30 2.23832 30 4.99942C30 7.76052 32.2386 9.99884 35 9.99884Z" fill="#5ABCFF"/>
<path d="M20 39.9954C22.7614 39.9954 24.9999 37.7571 24.9999 34.996C24.9999 32.2349 22.7614 29.9966 20 29.9966C17.2386 29.9966 15 32.2349 15 34.996C15 37.7571 17.2386 39.9954 20 39.9954Z" fill="#5ABCFF"/>
<path d="M34.9998 29.9965C34.7342 29.9965 34.4686 30.0278 34.2186 30.059C30.7655 30.6058 25.7811 26.1376 24.9999 22.3568V17.498C24.9999 16.1231 23.8749 14.9983 22.4999 14.9983H17.6405C14.4062 14.3265 10.6718 10.5925 9.99995 7.35852V0H0V9.99884H7.35934C10.5937 10.6706 14.328 14.4046 14.9999 17.6386V22.4974C14.9999 23.8722 16.1249 24.9971 17.4999 24.9971H22.3593C26.1405 25.7783 30.6092 30.7621 30.0623 34.2148C30.0155 34.4648 29.9998 34.7303 29.9998 34.9959C29.9998 38.0893 32.7967 40.5266 35.9998 39.9016C37.9529 39.5267 39.5154 37.9487 39.906 35.9958C40.5154 32.7931 38.0779 29.9965 34.9998 29.9965Z" fill="url(#paint0_linear_10138_451222)"/>
<path d="M50 13.9379H55.6237V31.0922H60.9037V13.9379H66.5274V9.31348H50V13.9379Z" fill="#00124F"/>
<path d="M76.197 15.9844C74.1506 15.9844 72.2761 17.3436 71.5575 19.9995V16.3593H66.7773V31.092H71.8074V26.2488C71.8074 22.0774 72.8228 20.7494 74.8692 20.7494C75.6971 20.7494 76.4469 20.8744 77.1499 21.1244L78.384 16.375C77.7748 16.1094 77.0562 15.9844 76.197 15.9844Z" fill="#00124F"/>
<path d="M89.6311 16.3754V17.9534C88.7407 16.6879 87.1005 16.0005 85.554 16.0005C83.6326 16.0005 81.9454 16.7348 80.5239 18.1565C79.1024 19.5782 78.3682 21.4061 78.3682 23.7183C78.3682 26.0306 79.1024 27.8585 80.5239 29.2802C81.9454 30.7019 83.6169 31.4049 85.554 31.4049C87.3504 31.4049 88.7095 30.7332 89.6311 29.4364V31.1081H94.6612V16.3754H89.6311ZM88.7095 25.9212C87.5379 27.093 85.6165 27.093 84.3824 25.9212C83.2108 24.687 83.2108 22.7653 84.3824 21.5936C85.6165 20.3594 87.5379 20.3594 88.7095 21.5936C89.9436 22.7497 89.9436 24.687 88.7095 25.9212Z" fill="#00124F"/>
<path d="M128.778 16.3749V11.0942H123.827V16.3749H121.14V20.062H123.827V31.0919H128.778V20.062H131.871V16.3749H128.778Z" fill="#00124F"/>
<path d="M118.203 8.62597C113.782 8.62597 111.127 11.1569 111.127 15.8283V16.3595H110.33H108.143H105.222V15.8283C105.253 14.2191 106.05 13.391 107.268 13.391H109.158V8.61036H107.268C102.847 8.61036 100.192 11.1413 100.192 15.8126V16.3438H97.4424V20.0465H100.192V31.0765H105.222V20.0465H108.143H110.33H111.127V31.0765H116.157V20.0465H119.25V16.3438H116.157V15.8126C116.188 14.2035 116.985 13.3754 118.203 13.3754H119.765H120.109V8.59473H119.765H118.203V8.62597Z" fill="#00124F"/>
<defs>
<linearGradient id="paint0_linear_10138_451222" x1="-0.00701559" y1="19.9977" x2="39.9935" y2="19.9977" gradientUnits="userSpaceOnUse">
<stop stop-color="#5ABCFF"/>
<stop offset="0.8997" stop-color="#005AEE"/>
</linearGradient>
</defs>
</svg>
