<svg width="20" height="20" viewBox="0 0 20 20" fill="none" xmlns="http://www.w3.org/2000/svg">
<path d="M10 5C11.3807 5 12.5 3.88071 12.5 2.5C12.5 1.11929 11.3807 0 10 0C8.61929 0 7.5 1.11929 7.5 2.5C7.5 3.88071 8.61929 5 10 5Z" fill="#5ABCFF"/>
<path d="M17.5 5C18.8807 5 20 3.88071 20 2.5C20 1.11929 18.8807 0 17.5 0C16.1193 0 15 1.11929 15 2.5C15 3.88071 16.1193 5 17.5 5Z" fill="#5ABCFF"/>
<path d="M10 20C11.3807 20 12.5 18.8807 12.5 17.5C12.5 16.1193 11.3807 15 10 15C8.61929 15 7.5 16.1193 7.5 17.5C7.5 18.8807 8.61929 20 10 20Z" fill="#5ABCFF"/>
<path d="M17.5 15C17.3672 15 17.2344 15.0156 17.1094 15.0312C15.3828 15.3047 12.8906 13.0703 12.5 11.1797V8.75C12.5 8.0625 11.9375 7.5 11.25 7.5H8.82031C7.20312 7.16406 5.33594 5.29688 5 3.67969V0H0V5H3.67969C5.29688 5.33594 7.16406 7.20312 7.5 8.82031V11.25C7.5 11.9375 8.0625 12.5 8.75 12.5H11.1797C13.0703 12.8906 15.3047 15.3828 15.0312 17.1094C15.0078 17.2344 15 17.3672 15 17.5C15 19.0469 16.3984 20.2656 18 19.9531C18.9766 19.7656 19.7578 18.9766 19.9531 18C20.2656 16.3984 19.0469 15 17.5 15Z" fill="url(#paint0_linear_11484_27047)"/>
<defs>
<linearGradient id="paint0_linear_11484_27047" x1="0" y1="10" x2="20.0004" y2="10" gradientUnits="userSpaceOnUse">
<stop stop-color="#5ABCFF"/>
<stop offset="0.8997" stop-color="#005AEE"/>
</linearGradient>
</defs>
</svg>
